<mxfile host="Electron" modified="2024-07-02T20:02:23.799Z" agent="Mozilla/5.0 (Macintosh; Intel Mac OS X 10_15_7) AppleWebKit/537.36 (KHTML, like Gecko) draw.io/24.6.1 Chrome/124.0.6367.207 Electron/30.0.6 Safari/537.36" etag="2nG_39XcH7YKznJkn9qL" version="24.6.1" type="device">
  <diagram name="Page-1" id="GcCgLhyt7vz6Rbl6KXeo">
    <mxGraphModel dx="2433" dy="2065" grid="1" gridSize="10" guides="1" tooltips="1" connect="1" arrows="1" fold="1" page="1" pageScale="1" pageWidth="850" pageHeight="1100" math="0" shadow="0">
      <root>
        <mxCell id="0" />
        <mxCell id="1" parent="0" />
        <mxCell id="pytdyRZE-BAeMgei_a44-2" value="" style="rounded=0;whiteSpace=wrap;html=1;" vertex="1" parent="1">
          <mxGeometry x="50" y="120" width="740" height="540" as="geometry" />
        </mxCell>
        <mxCell id="pytdyRZE-BAeMgei_a44-3" value="&lt;font style=&quot;font-size: 18px;&quot;&gt;VPC - 10.1.0.0/16 - prod&lt;/font&gt;" style="text;html=1;align=center;verticalAlign=middle;resizable=0;points=[];autosize=1;strokeColor=none;fillColor=none;" vertex="1" parent="1">
          <mxGeometry x="50" y="73" width="220" height="40" as="geometry" />
        </mxCell>
        <mxCell id="pytdyRZE-BAeMgei_a44-4" value="" style="rounded=1;whiteSpace=wrap;html=1;" vertex="1" parent="1">
          <mxGeometry x="90" y="180" width="280" height="400" as="geometry" />
        </mxCell>
        <mxCell id="pytdyRZE-BAeMgei_a44-5" value="" style="rounded=1;whiteSpace=wrap;html=1;" vertex="1" parent="1">
          <mxGeometry x="450" y="180" width="280" height="400" as="geometry" />
        </mxCell>
        <mxCell id="pytdyRZE-BAeMgei_a44-6" value="subnet - 10.1.1.0/24 -prod-public" style="text;html=1;align=center;verticalAlign=middle;resizable=0;points=[];autosize=1;strokeColor=none;fillColor=none;" vertex="1" parent="1">
          <mxGeometry x="130" y="190" width="200" height="30" as="geometry" />
        </mxCell>
        <mxCell id="pytdyRZE-BAeMgei_a44-7" value="IGW" style="rhombus;whiteSpace=wrap;html=1;" vertex="1" parent="1">
          <mxGeometry x="370" y="620" width="80" height="80" as="geometry" />
        </mxCell>
        <mxCell id="pytdyRZE-BAeMgei_a44-25" style="edgeStyle=orthogonalEdgeStyle;rounded=0;orthogonalLoop=1;jettySize=auto;html=1;entryX=0;entryY=0.5;entryDx=0;entryDy=0;" edge="1" parent="1" source="pytdyRZE-BAeMgei_a44-8" target="pytdyRZE-BAeMgei_a44-20">
          <mxGeometry relative="1" as="geometry" />
        </mxCell>
        <mxCell id="pytdyRZE-BAeMgei_a44-8" value="webserver" style="rounded=1;whiteSpace=wrap;html=1;" vertex="1" parent="1">
          <mxGeometry x="170" y="400" width="120" height="60" as="geometry" />
        </mxCell>
        <mxCell id="pytdyRZE-BAeMgei_a44-11" style="edgeStyle=orthogonalEdgeStyle;rounded=0;orthogonalLoop=1;jettySize=auto;html=1;" edge="1" parent="1" source="pytdyRZE-BAeMgei_a44-10" target="pytdyRZE-BAeMgei_a44-7">
          <mxGeometry relative="1" as="geometry">
            <Array as="points">
              <mxPoint x="220" y="610" />
              <mxPoint x="410" y="610" />
            </Array>
          </mxGeometry>
        </mxCell>
        <mxCell id="pytdyRZE-BAeMgei_a44-10" value="RT&lt;br&gt;10.1.0.0/16&amp;nbsp; &amp;nbsp; local&lt;br&gt;0.0.0.0/0.&amp;nbsp; &amp;nbsp; &amp;nbsp;IGW" style="rounded=1;whiteSpace=wrap;html=1;" vertex="1" parent="1">
          <mxGeometry x="160" y="550" width="120" height="50" as="geometry" />
        </mxCell>
        <mxCell id="pytdyRZE-BAeMgei_a44-13" style="edgeStyle=orthogonalEdgeStyle;rounded=0;orthogonalLoop=1;jettySize=auto;html=1;" edge="1" parent="1" source="pytdyRZE-BAeMgei_a44-12" target="pytdyRZE-BAeMgei_a44-8">
          <mxGeometry relative="1" as="geometry">
            <Array as="points">
              <mxPoint y="480" />
              <mxPoint y="430" />
            </Array>
          </mxGeometry>
        </mxCell>
        <mxCell id="pytdyRZE-BAeMgei_a44-12" value="Actor" style="shape=umlActor;verticalLabelPosition=bottom;verticalAlign=top;html=1;outlineConnect=0;" vertex="1" parent="1">
          <mxGeometry x="-80" y="450" width="30" height="60" as="geometry" />
        </mxCell>
        <mxCell id="pytdyRZE-BAeMgei_a44-14" value="public IP" style="text;html=1;align=center;verticalAlign=middle;resizable=0;points=[];autosize=1;strokeColor=none;fillColor=none;" vertex="1" parent="1">
          <mxGeometry x="195" y="365" width="70" height="30" as="geometry" />
        </mxCell>
        <mxCell id="pytdyRZE-BAeMgei_a44-18" value="" style="endArrow=none;dashed=1;html=1;dashPattern=1 3;strokeWidth=2;rounded=0;" edge="1" parent="1">
          <mxGeometry width="50" height="50" relative="1" as="geometry">
            <mxPoint x="130" y="365.00333333333333" as="sourcePoint" />
            <mxPoint x="130" y="475" as="targetPoint" />
          </mxGeometry>
        </mxCell>
        <mxCell id="pytdyRZE-BAeMgei_a44-19" value="SG" style="edgeLabel;html=1;align=center;verticalAlign=middle;resizable=0;points=[];" vertex="1" connectable="0" parent="pytdyRZE-BAeMgei_a44-18">
          <mxGeometry x="-0.6091" y="2" relative="1" as="geometry">
            <mxPoint as="offset" />
          </mxGeometry>
        </mxCell>
        <mxCell id="pytdyRZE-BAeMgei_a44-96" style="edgeStyle=orthogonalEdgeStyle;rounded=0;orthogonalLoop=1;jettySize=auto;html=1;entryX=1;entryY=0.5;entryDx=0;entryDy=0;" edge="1" parent="1" source="pytdyRZE-BAeMgei_a44-20" target="pytdyRZE-BAeMgei_a44-8">
          <mxGeometry relative="1" as="geometry" />
        </mxCell>
        <mxCell id="pytdyRZE-BAeMgei_a44-20" value="backend" style="rounded=1;whiteSpace=wrap;html=1;" vertex="1" parent="1">
          <mxGeometry x="530" y="400" width="120" height="60" as="geometry" />
        </mxCell>
        <mxCell id="pytdyRZE-BAeMgei_a44-21" value="subnet - 10.1.2.0/24 -prod-private" style="text;html=1;align=center;verticalAlign=middle;resizable=0;points=[];autosize=1;strokeColor=none;fillColor=none;" vertex="1" parent="1">
          <mxGeometry x="480" y="190" width="200" height="30" as="geometry" />
        </mxCell>
        <mxCell id="pytdyRZE-BAeMgei_a44-22" value="RT&lt;br&gt;10.1.0.0/16&amp;nbsp; &amp;nbsp; local&lt;br&gt;0.0.0.0/0.&amp;nbsp; &amp;nbsp; &amp;nbsp;NAT" style="rounded=1;whiteSpace=wrap;html=1;" vertex="1" parent="1">
          <mxGeometry x="530" y="550" width="120" height="50" as="geometry" />
        </mxCell>
        <mxCell id="pytdyRZE-BAeMgei_a44-23" value="NAT" style="rhombus;whiteSpace=wrap;html=1;" vertex="1" parent="1">
          <mxGeometry x="185" y="260" width="80" height="80" as="geometry" />
        </mxCell>
        <mxCell id="pytdyRZE-BAeMgei_a44-26" value="" style="endArrow=none;dashed=1;html=1;dashPattern=1 3;strokeWidth=2;rounded=0;" edge="1" parent="1">
          <mxGeometry width="50" height="50" relative="1" as="geometry">
            <mxPoint x="490" y="360.00333333333333" as="sourcePoint" />
            <mxPoint x="490" y="470" as="targetPoint" />
          </mxGeometry>
        </mxCell>
        <mxCell id="pytdyRZE-BAeMgei_a44-27" value="SG" style="edgeLabel;html=1;align=center;verticalAlign=middle;resizable=0;points=[];" vertex="1" connectable="0" parent="pytdyRZE-BAeMgei_a44-26">
          <mxGeometry x="-0.6091" y="2" relative="1" as="geometry">
            <mxPoint as="offset" />
          </mxGeometry>
        </mxCell>
        <mxCell id="pytdyRZE-BAeMgei_a44-29" value="internet" style="ellipse;shape=cloud;whiteSpace=wrap;html=1;" vertex="1" parent="1">
          <mxGeometry x="350" y="770" width="120" height="80" as="geometry" />
        </mxCell>
        <mxCell id="pytdyRZE-BAeMgei_a44-30" style="edgeStyle=orthogonalEdgeStyle;rounded=0;orthogonalLoop=1;jettySize=auto;html=1;entryX=0.458;entryY=0.069;entryDx=0;entryDy=0;entryPerimeter=0;" edge="1" parent="1" source="pytdyRZE-BAeMgei_a44-7" target="pytdyRZE-BAeMgei_a44-29">
          <mxGeometry relative="1" as="geometry" />
        </mxCell>
        <mxCell id="pytdyRZE-BAeMgei_a44-32" style="edgeStyle=orthogonalEdgeStyle;rounded=0;orthogonalLoop=1;jettySize=auto;html=1;" edge="1" parent="1" source="pytdyRZE-BAeMgei_a44-31" target="pytdyRZE-BAeMgei_a44-29">
          <mxGeometry relative="1" as="geometry" />
        </mxCell>
        <mxCell id="pytdyRZE-BAeMgei_a44-31" value="Actor" style="shape=umlActor;verticalLabelPosition=bottom;verticalAlign=top;html=1;outlineConnect=0;" vertex="1" parent="1">
          <mxGeometry x="395" y="920" width="30" height="60" as="geometry" />
        </mxCell>
        <mxCell id="pytdyRZE-BAeMgei_a44-33" value="public IP" style="text;html=1;align=center;verticalAlign=middle;resizable=0;points=[];autosize=1;strokeColor=none;fillColor=none;" vertex="1" parent="1">
          <mxGeometry x="190" y="230" width="70" height="30" as="geometry" />
        </mxCell>
        <mxCell id="pytdyRZE-BAeMgei_a44-38" value="s3" style="shape=cylinder3;whiteSpace=wrap;html=1;boundedLbl=1;backgroundOutline=1;size=15;" vertex="1" parent="1">
          <mxGeometry x="380" y="-40" width="60" height="80" as="geometry" />
        </mxCell>
        <mxCell id="pytdyRZE-BAeMgei_a44-45" style="edgeStyle=orthogonalEdgeStyle;rounded=0;orthogonalLoop=1;jettySize=auto;html=1;" edge="1" parent="1" source="pytdyRZE-BAeMgei_a44-39" target="pytdyRZE-BAeMgei_a44-42">
          <mxGeometry relative="1" as="geometry" />
        </mxCell>
        <mxCell id="pytdyRZE-BAeMgei_a44-39" value="Role" style="rounded=1;whiteSpace=wrap;html=1;" vertex="1" parent="1">
          <mxGeometry x="250" y="1240" width="120" height="60" as="geometry" />
        </mxCell>
        <mxCell id="pytdyRZE-BAeMgei_a44-41" style="edgeStyle=orthogonalEdgeStyle;rounded=0;orthogonalLoop=1;jettySize=auto;html=1;entryX=1;entryY=0.5;entryDx=0;entryDy=0;" edge="1" parent="1" source="pytdyRZE-BAeMgei_a44-40" target="pytdyRZE-BAeMgei_a44-39">
          <mxGeometry relative="1" as="geometry" />
        </mxCell>
        <mxCell id="pytdyRZE-BAeMgei_a44-40" value="&lt;h1 style=&quot;margin-top: 0px;&quot;&gt;s3:*&lt;/h1&gt;&lt;div&gt;allow&lt;/div&gt;&lt;div&gt;resource: *&lt;/div&gt;" style="text;html=1;whiteSpace=wrap;overflow=hidden;rounded=0;" vertex="1" parent="1">
          <mxGeometry x="490" y="1210" width="180" height="120" as="geometry" />
        </mxCell>
        <mxCell id="pytdyRZE-BAeMgei_a44-44" style="edgeStyle=orthogonalEdgeStyle;rounded=0;orthogonalLoop=1;jettySize=auto;html=1;" edge="1" parent="1" source="pytdyRZE-BAeMgei_a44-42" target="pytdyRZE-BAeMgei_a44-43">
          <mxGeometry relative="1" as="geometry" />
        </mxCell>
        <mxCell id="pytdyRZE-BAeMgei_a44-42" value="EC2" style="rounded=1;whiteSpace=wrap;html=1;" vertex="1" parent="1">
          <mxGeometry x="250" y="1390" width="120" height="60" as="geometry" />
        </mxCell>
        <mxCell id="pytdyRZE-BAeMgei_a44-43" value="s3" style="shape=cylinder3;whiteSpace=wrap;html=1;boundedLbl=1;backgroundOutline=1;size=15;" vertex="1" parent="1">
          <mxGeometry x="590" y="1380" width="60" height="80" as="geometry" />
        </mxCell>
        <mxCell id="pytdyRZE-BAeMgei_a44-50" value="" style="rounded=1;whiteSpace=wrap;html=1;" vertex="1" parent="1">
          <mxGeometry x="-40" y="-700" width="730" height="460" as="geometry" />
        </mxCell>
        <mxCell id="pytdyRZE-BAeMgei_a44-51" value="aws network" style="text;html=1;align=center;verticalAlign=middle;resizable=0;points=[];autosize=1;strokeColor=none;fillColor=none;" vertex="1" parent="1">
          <mxGeometry x="5" y="-730" width="90" height="30" as="geometry" />
        </mxCell>
        <mxCell id="pytdyRZE-BAeMgei_a44-52" value="vpc" style="rounded=1;whiteSpace=wrap;html=1;" vertex="1" parent="1">
          <mxGeometry x="30" y="-650" width="120" height="60" as="geometry" />
        </mxCell>
        <mxCell id="pytdyRZE-BAeMgei_a44-53" value="vpc" style="rounded=1;whiteSpace=wrap;html=1;" vertex="1" parent="1">
          <mxGeometry x="230" y="-650" width="120" height="60" as="geometry" />
        </mxCell>
        <mxCell id="pytdyRZE-BAeMgei_a44-54" value="vpc" style="rounded=1;whiteSpace=wrap;html=1;" vertex="1" parent="1">
          <mxGeometry x="430" y="-650" width="120" height="60" as="geometry" />
        </mxCell>
        <mxCell id="pytdyRZE-BAeMgei_a44-55" value="s3" style="shape=cylinder3;whiteSpace=wrap;html=1;boundedLbl=1;backgroundOutline=1;size=15;" vertex="1" parent="1">
          <mxGeometry x="310" y="-440" width="60" height="80" as="geometry" />
        </mxCell>
        <mxCell id="pytdyRZE-BAeMgei_a44-56" value="Internat" style="ellipse;shape=cloud;whiteSpace=wrap;html=1;" vertex="1" parent="1">
          <mxGeometry x="250" y="-850" width="120" height="80" as="geometry" />
        </mxCell>
        <mxCell id="pytdyRZE-BAeMgei_a44-59" style="edgeStyle=orthogonalEdgeStyle;rounded=0;orthogonalLoop=1;jettySize=auto;html=1;entryX=0;entryY=0.5;entryDx=0;entryDy=0;entryPerimeter=0;" edge="1" parent="1" source="pytdyRZE-BAeMgei_a44-52" target="pytdyRZE-BAeMgei_a44-55">
          <mxGeometry relative="1" as="geometry">
            <Array as="points">
              <mxPoint x="90" y="-400" />
            </Array>
          </mxGeometry>
        </mxCell>
        <mxCell id="pytdyRZE-BAeMgei_a44-60" value="prod-vpc" style="rounded=0;whiteSpace=wrap;html=1;" vertex="1" parent="1">
          <mxGeometry x="60" y="1680" width="270" height="250" as="geometry" />
        </mxCell>
        <mxCell id="pytdyRZE-BAeMgei_a44-61" value="work vpc" style="rounded=0;whiteSpace=wrap;html=1;" vertex="1" parent="1">
          <mxGeometry x="530" y="1750" width="120" height="100" as="geometry" />
        </mxCell>
        <mxCell id="pytdyRZE-BAeMgei_a44-62" value="ec2" style="rounded=1;whiteSpace=wrap;html=1;" vertex="1" parent="1">
          <mxGeometry x="145" y="1690" width="120" height="60" as="geometry" />
        </mxCell>
        <mxCell id="pytdyRZE-BAeMgei_a44-63" value="ec2" style="rounded=1;whiteSpace=wrap;html=1;" vertex="1" parent="1">
          <mxGeometry x="550" y="1760" width="70" height="30" as="geometry" />
        </mxCell>
        <mxCell id="pytdyRZE-BAeMgei_a44-65" value="10.1.0.0/16" style="text;html=1;align=center;verticalAlign=middle;whiteSpace=wrap;rounded=0;" vertex="1" parent="1">
          <mxGeometry x="160" y="1630" width="60" height="30" as="geometry" />
        </mxCell>
        <mxCell id="pytdyRZE-BAeMgei_a44-66" value="10.0.0.0/16" style="text;html=1;align=center;verticalAlign=middle;whiteSpace=wrap;rounded=0;" vertex="1" parent="1">
          <mxGeometry x="550" y="1710" width="60" height="30" as="geometry" />
        </mxCell>
        <mxCell id="pytdyRZE-BAeMgei_a44-67" value="&lt;h1 style=&quot;margin-top: 0px;&quot;&gt;RT&lt;/h1&gt;&lt;div&gt;10.1.0.0/16.&amp;nbsp; &amp;nbsp; local&lt;/div&gt;&lt;div&gt;&lt;span style=&quot;text-align: center;&quot;&gt;10.0.0.0/16.&amp;nbsp; &amp;nbsp; peering&lt;/span&gt;&lt;br&gt;&lt;/div&gt;" style="text;html=1;whiteSpace=wrap;overflow=hidden;rounded=0;" vertex="1" parent="1">
          <mxGeometry x="230" y="1910" width="180" height="120" as="geometry" />
        </mxCell>
        <mxCell id="pytdyRZE-BAeMgei_a44-70" style="edgeStyle=orthogonalEdgeStyle;rounded=0;orthogonalLoop=1;jettySize=auto;html=1;" edge="1" parent="1" source="pytdyRZE-BAeMgei_a44-68" target="pytdyRZE-BAeMgei_a44-69">
          <mxGeometry relative="1" as="geometry" />
        </mxCell>
        <mxCell id="pytdyRZE-BAeMgei_a44-68" value="" style="ellipse;whiteSpace=wrap;html=1;" vertex="1" parent="1">
          <mxGeometry x="305" y="1775" width="70" height="50" as="geometry" />
        </mxCell>
        <mxCell id="pytdyRZE-BAeMgei_a44-71" style="edgeStyle=orthogonalEdgeStyle;rounded=0;orthogonalLoop=1;jettySize=auto;html=1;" edge="1" parent="1" source="pytdyRZE-BAeMgei_a44-69" target="pytdyRZE-BAeMgei_a44-68">
          <mxGeometry relative="1" as="geometry" />
        </mxCell>
        <mxCell id="pytdyRZE-BAeMgei_a44-69" value="" style="ellipse;whiteSpace=wrap;html=1;" vertex="1" parent="1">
          <mxGeometry x="480" y="1780" width="70" height="50" as="geometry" />
        </mxCell>
        <mxCell id="pytdyRZE-BAeMgei_a44-72" value="&lt;h1 style=&quot;margin-top: 0px;&quot;&gt;RT&lt;/h1&gt;&lt;div&gt;10.0.0.0/16.&amp;nbsp; &amp;nbsp; local&lt;/div&gt;&lt;div&gt;&lt;span style=&quot;text-align: center;&quot;&gt;10.1.0.0/16.&amp;nbsp; &amp;nbsp; peering&lt;/span&gt;&lt;br&gt;&lt;/div&gt;" style="text;html=1;whiteSpace=wrap;overflow=hidden;rounded=0;" vertex="1" parent="1">
          <mxGeometry x="530" y="1870" width="180" height="120" as="geometry" />
        </mxCell>
        <mxCell id="pytdyRZE-BAeMgei_a44-83" value="prod-pvc" style="whiteSpace=wrap;html=1;" vertex="1" parent="1">
          <mxGeometry x="-30" y="2270" width="340" height="310" as="geometry" />
        </mxCell>
        <mxCell id="pytdyRZE-BAeMgei_a44-84" value="on-prem" style="whiteSpace=wrap;html=1;" vertex="1" parent="1">
          <mxGeometry x="640" y="2260" width="340" height="310" as="geometry" />
        </mxCell>
        <mxCell id="pytdyRZE-BAeMgei_a44-88" style="edgeStyle=orthogonalEdgeStyle;rounded=0;orthogonalLoop=1;jettySize=auto;html=1;" edge="1" parent="1" source="pytdyRZE-BAeMgei_a44-85">
          <mxGeometry relative="1" as="geometry">
            <mxPoint x="340" y="2405" as="targetPoint" />
          </mxGeometry>
        </mxCell>
        <mxCell id="pytdyRZE-BAeMgei_a44-85" value="Customer GW" style="ellipse;whiteSpace=wrap;html=1;" vertex="1" parent="1">
          <mxGeometry x="600" y="2370" width="70" height="70" as="geometry" />
        </mxCell>
        <mxCell id="pytdyRZE-BAeMgei_a44-87" style="edgeStyle=orthogonalEdgeStyle;rounded=0;orthogonalLoop=1;jettySize=auto;html=1;entryX=0;entryY=0.5;entryDx=0;entryDy=0;" edge="1" parent="1" source="pytdyRZE-BAeMgei_a44-86" target="pytdyRZE-BAeMgei_a44-85">
          <mxGeometry relative="1" as="geometry" />
        </mxCell>
        <mxCell id="pytdyRZE-BAeMgei_a44-86" value="VGW" style="ellipse;whiteSpace=wrap;html=1;" vertex="1" parent="1">
          <mxGeometry x="275" y="2370" width="70" height="70" as="geometry" />
        </mxCell>
        <mxCell id="pytdyRZE-BAeMgei_a44-89" value="VM" style="rounded=1;whiteSpace=wrap;html=1;" vertex="1" parent="1">
          <mxGeometry x="750" y="2270" width="120" height="60" as="geometry" />
        </mxCell>
        <mxCell id="pytdyRZE-BAeMgei_a44-90" value="ec2" style="rounded=1;whiteSpace=wrap;html=1;" vertex="1" parent="1">
          <mxGeometry x="75" y="2290" width="120" height="60" as="geometry" />
        </mxCell>
        <mxCell id="pytdyRZE-BAeMgei_a44-91" value="" style="ellipse;shape=cloud;whiteSpace=wrap;html=1;" vertex="1" parent="1">
          <mxGeometry x="410" y="2365" width="120" height="80" as="geometry" />
        </mxCell>
        <mxCell id="pytdyRZE-BAeMgei_a44-92" value="Text" style="text;html=1;align=center;verticalAlign=middle;whiteSpace=wrap;rounded=0;" vertex="1" parent="1">
          <mxGeometry x="130" y="2365" width="60" height="30" as="geometry" />
        </mxCell>
        <mxCell id="pytdyRZE-BAeMgei_a44-93" value="site-to-site VPN" style="text;html=1;align=center;verticalAlign=middle;resizable=0;points=[];autosize=1;strokeColor=none;fillColor=none;" vertex="1" parent="1">
          <mxGeometry x="410" y="2460" width="110" height="30" as="geometry" />
        </mxCell>
        <mxCell id="pytdyRZE-BAeMgei_a44-95" style="edgeStyle=orthogonalEdgeStyle;rounded=0;orthogonalLoop=1;jettySize=auto;html=1;entryX=1;entryY=0.5;entryDx=0;entryDy=0;entryPerimeter=0;" edge="1" parent="1" source="pytdyRZE-BAeMgei_a44-20" target="pytdyRZE-BAeMgei_a44-38">
          <mxGeometry relative="1" as="geometry">
            <Array as="points">
              <mxPoint x="690" y="430" />
              <mxPoint x="690" />
            </Array>
          </mxGeometry>
        </mxCell>
        <mxCell id="pytdyRZE-BAeMgei_a44-97" value="&lt;font style=&quot;font-size: 36px;&quot;&gt;&lt;b&gt;&lt;u&gt;VPC endpoint&lt;/u&gt;&lt;/b&gt;&lt;/font&gt;" style="text;html=1;align=center;verticalAlign=middle;resizable=0;points=[];autosize=1;strokeColor=none;fillColor=none;" vertex="1" parent="1">
          <mxGeometry x="700" y="-497" width="260" height="60" as="geometry" />
        </mxCell>
        <mxCell id="pytdyRZE-BAeMgei_a44-98" value="&lt;font style=&quot;font-size: 36px;&quot;&gt;&lt;b&gt;&lt;u&gt;VPC&lt;/u&gt;&lt;/b&gt;&lt;/font&gt;" style="text;html=1;align=center;verticalAlign=middle;resizable=0;points=[];autosize=1;strokeColor=none;fillColor=none;" vertex="1" parent="1">
          <mxGeometry x="830" y="30" width="100" height="60" as="geometry" />
        </mxCell>
        <mxCell id="pytdyRZE-BAeMgei_a44-99" value="&lt;font style=&quot;font-size: 36px;&quot;&gt;&lt;b&gt;&lt;u&gt;IAM - Role&lt;/u&gt;&lt;/b&gt;&lt;/font&gt;" style="text;html=1;align=center;verticalAlign=middle;resizable=0;points=[];autosize=1;strokeColor=none;fillColor=none;" vertex="1" parent="1">
          <mxGeometry x="590" y="1240" width="200" height="60" as="geometry" />
        </mxCell>
        <mxCell id="pytdyRZE-BAeMgei_a44-100" value="&lt;font style=&quot;font-size: 36px;&quot;&gt;&lt;b&gt;&lt;u&gt;VPC Peering&lt;/u&gt;&lt;/b&gt;&lt;/font&gt;" style="text;html=1;align=center;verticalAlign=middle;resizable=0;points=[];autosize=1;strokeColor=none;fillColor=none;" vertex="1" parent="1">
          <mxGeometry x="660" y="1650" width="240" height="60" as="geometry" />
        </mxCell>
        <mxCell id="pytdyRZE-BAeMgei_a44-101" value="&lt;font style=&quot;font-size: 36px;&quot;&gt;&lt;b&gt;&lt;u&gt;site-to-site&lt;/u&gt;&lt;/b&gt;&lt;/font&gt;&lt;b style=&quot;font-size: 36px;&quot;&gt;&lt;u&gt;&amp;nbsp;VPN&lt;/u&gt;&lt;/b&gt;" style="text;html=1;align=center;verticalAlign=middle;resizable=0;points=[];autosize=1;strokeColor=none;fillColor=none;" vertex="1" parent="1">
          <mxGeometry x="345" y="2200" width="290" height="60" as="geometry" />
        </mxCell>
      </root>
    </mxGraphModel>
  </diagram>
</mxfile>
